HIERARCHY
ROOT Hips
{
	OFFSET 0.000000 88.474243 0.000000
	CHANNELS 6 Xposition Yposition Zposition Zrotation Yrotation Xrotation 
	JOINT Hips_Spine
	{
		OFFSET 0.000000 0.000000 0.000000
		CHANNELS 3 Zrotation Yrotation Xrotation
		JOINT Spine
		{
			OFFSET 0.005100 8.711998 -0.691000
			CHANNELS 3 Zrotation Yrotation Xrotation
			JOINT Spine1
			{
				OFFSET -0.009200 8.660301 -1.275000
				CHANNELS 3 Zrotation Yrotation Xrotation
				JOINT Spine2
				{
					OFFSET 0.006300 9.852501 -1.857000
					CHANNELS 3 Zrotation Yrotation Xrotation
					JOINT Spine2_Neck
					{
						OFFSET 0.000000 0.000000 0.000000
						CHANNELS 3 Zrotation Yrotation Xrotation
						JOINT Neck
						{
							OFFSET 0.016300 11.420799 -0.263300
							CHANNELS 3 Zrotation Yrotation Xrotation
							End Site #name: Head
							{
								OFFSET -0.019200 9.262405 2.362500
							}
						}
					}
					JOINT Spine2_LeftShoulder
					{
						OFFSET 0.000000 0.000000 0.000000
						CHANNELS 3 Zrotation Yrotation Xrotation
						JOINT LeftShoulder
						{
							OFFSET 5.616900 6.732201 -0.345700
							CHANNELS 3 Zrotation Yrotation Xrotation
							JOINT LeftArm
							{
								OFFSET 10.664888 -0.183372 -2.440700
								CHANNELS 3 Zrotation Yrotation Xrotation
								JOINT LeftForeArm
								{
									OFFSET 27.459126 0.000000 0.000000
									CHANNELS 3 Zrotation Yrotation Xrotation
									End Site #name: LeftHand
									{
										OFFSET 21.306858 0.000000 0.000000
									}
								}
							}
						}
					}
					JOINT Spine2_RightShoulder
					{
						OFFSET 0.000000 0.000000 0.000000
						CHANNELS 3 Zrotation Yrotation Xrotation
						JOINT RightShoulder
						{
							OFFSET -5.580300 6.737503 -0.344400
							CHANNELS 3 Zrotation Yrotation Xrotation
							JOINT RightArm
							{
								OFFSET -10.679335 -0.188484 -2.383900
								CHANNELS 3 Zrotation Yrotation Xrotation
								JOINT RightForeArm
								{
									OFFSET -27.503529 0.000000 0.000000
									CHANNELS 3 Zrotation Yrotation Xrotation
									End Site #name: RightHand
									{
										OFFSET -21.306808 0.000000 0.000000
									}
								}
							}
						}
					}
				}
			}
		}
	}
	JOINT Hips_LeftUpLeg
	{
		OFFSET 0.000000 0.000000 0.000000
		CHANNELS 3 Zrotation Yrotation Xrotation
		JOINT LeftUpLeg
		{
			OFFSET 6.857700 -6.739601 0.312100
			CHANNELS 3 Zrotation Yrotation Xrotation
			JOINT LeftLeg
			{
				OFFSET -0.367590 -34.731552 -4.572400
				CHANNELS 3 Zrotation Yrotation Xrotation
				End Site #name: LeftFoot
				{
					OFFSET 0.367590 -34.656704 -6.067400
				}
			}
		}
	}
	JOINT Hips_RightUpLeg
	{
		OFFSET 0.000000 0.000000 0.000000
		CHANNELS 3 Zrotation Yrotation Xrotation
		JOINT RightUpLeg
		{
			OFFSET -6.876100 -6.733299 0.301000
			CHANNELS 3 Zrotation Yrotation Xrotation
			JOINT RightLeg
			{
				OFFSET 0.347353 -34.795158 -4.515900
				CHANNELS 3 Zrotation Yrotation Xrotation
				End Site #name: RightFoot
				{
					OFFSET -0.347353 -34.589367 -6.070300
				}
			}
		}
	}
}
MOTION
Frames: 17
Frame Time: 0.041667
0.164079 0.053782 -0.007832 0.943302 18.933295 -5.839923 -0.000000 0.000000 0.000000 0.144955 -0.882224 -0.609546 0.111168 -1.320711 -1.988447 0.000000 0.000000 0.000000 -0.077831 -0.937589 -2.192718 4.940147 1.443248 -6.957224 0.143324 -1.639634 -2.903255 -16.257440 -6.786239 1.967867 -45.935426 -0.440288 10.237245 0.053206 -32.197558 5.612800 0.035425 -1.096929 -1.027529 11.287411 9.911867 4.819086 57.819872 -6.515777 -3.663656 -0.511665 49.929377 0.778668 0.000000 0.000000 0.000000 -9.889347 18.867709 -5.278457 -1.369494 -1.544804 21.965497 0.000000 0.000000 0.000000 -5.322134 15.277336 -9.369802 7.193828 1.418490 -0.886126 
0.704385 -0.015285 0.151643 2.835256 19.084378 -6.236451 -0.000000 0.000000 0.000000 -2.372363 -1.605408 -1.180288 0.431172 -1.452902 -2.097154 0.000000 0.000000 0.000000 0.023850 -0.854096 -3.251629 5.351064 -0.189957 -5.416411 -0.360031 -1.551076 -4.001014 -21.547576 -3.482070 0.425672 -42.866194 0.307019 0.627004 -0.430506 -26.287242 3.032999 -0.040758 -1.524004 -1.226393 11.988949 7.612271 2.157129 60.332725 -2.015296 -5.647439 -0.396119 50.790864 -0.834633 0.000000 0.000000 -0.000000 -12.899321 16.550427 -2.280606 -0.577360 1.981179 19.885452 0.000000 0.000000 0.000000 -9.393264 17.097905 -10.027349 7.345586 1.061649 1.286027 
0.972788 -0.038385 0.188634 4.231930 17.152819 -6.442745 -0.000000 0.000000 0.000000 -4.227165 -2.821741 -0.691568 0.410575 -1.336500 -2.056495 0.000000 0.000000 0.000000 0.601560 -1.337273 -3.102398 4.632172 -1.191883 -5.643758 -0.582033 -1.549980 -3.536803 -25.366280 -2.701359 1.873482 -42.811984 5.679759 -3.801482 -1.124000 -27.077160 3.231926 0.095504 -1.586707 -1.104378 11.050573 7.203502 1.734063 59.686182 0.110320 -4.795893 -0.037954 46.431796 -0.637307 0.000000 0.000000 -0.000000 -14.697766 16.360775 -0.293076 -0.975423 2.527636 17.921275 0.000000 0.000000 0.000000 -11.566656 18.020686 -13.006114 6.526455 -0.737496 7.152660 
1.200899 -0.056152 0.150375 4.896675 15.346665 -6.305044 -0.000000 0.000000 -0.000000 -5.774437 -2.597870 0.465431 0.329802 -1.339120 -1.870869 0.000000 0.000000 0.000000 0.728110 -1.503134 -2.867325 4.249648 -3.140119 -4.121086 -0.547652 -1.593177 -3.242185 -26.747727 -2.503998 3.258767 -41.040160 6.251613 -2.883515 -0.664306 -25.661327 5.534207 0.165359 -1.620543 -0.916645 9.699895 7.407822 1.695018 59.617211 2.957268 -3.815449 0.153052 47.949320 -0.524458 0.000000 0.000000 -0.000000 -15.651943 16.488830 -0.037232 -1.142578 3.078850 17.409403 0.000000 0.000000 0.000000 -13.065442 17.150025 -16.082106 5.813115 -1.044270 14.040316 
1.481631 -0.061579 0.103686 5.108293 14.896082 -5.974914 -0.000000 0.000000 -0.000000 -6.625833 -2.136682 0.653165 0.124666 -1.258789 -1.765144 0.000000 0.000000 0.000000 0.424829 -1.585224 -2.875859 3.925011 -4.450658 -2.971319 -0.648901 -1.730456 -3.117391 -28.744516 -1.767179 4.325818 -38.114749 5.990362 -2.216533 0.008016 -21.367136 7.698325 0.082074 -1.613847 -0.849088 7.954320 7.611856 1.545408 60.607866 3.898260 -3.840644 0.208868 50.125021 -0.635807 0.000000 0.000000 -0.000000 -16.331281 16.729568 -0.290947 -1.289217 3.225148 17.363475 0.000000 0.000000 0.000000 -14.296574 15.864927 -18.019134 5.555106 -0.793980 18.756069 
1.796387 -0.054695 0.055365 5.108811 14.873599 -5.795688 -0.000000 0.000000 -0.000000 -6.781661 -1.918115 0.000260 -0.128179 -1.192404 -1.812796 0.000000 0.000000 0.000000 -0.036877 -1.636369 -2.972610 3.743070 -4.890642 -2.585684 -0.926312 -1.802351 -3.173620 -30.789595 -0.969525 4.870816 -35.874505 5.723144 -1.452466 0.541173 -16.906542 9.108374 -0.108414 -1.683506 -0.950981 6.251722 7.556246 1.443087 62.330100 3.272098 -5.066718 0.331291 50.244997 -0.671163 0.000000 0.000000 -0.000000 -16.753798 16.950961 -0.545733 -1.256388 3.341269 17.251391 0.000000 0.000000 0.000000 -15.100787 14.732810 -18.705874 5.566219 -0.099152 21.274099 
2.125603 -0.037620 0.007753 4.977195 15.412948 -5.684446 -0.000000 0.000000 -0.000000 -6.535220 -1.800856 -0.693962 -0.420596 -1.104447 -1.952429 0.000000 0.000000 0.000000 -0.422791 -1.644187 -3.077409 3.669898 -4.840487 -2.444056 -1.250331 -1.799455 -3.336165 -32.456275 -0.224882 5.182909 -34.406539 5.527338 -0.617440 0.992417 -12.448310 9.763609 -0.445396 -1.717969 -1.112755 5.115638 7.575025 1.382158 65.472995 3.068107 -6.471355 0.474332 49.128465 -0.654797 0.000000 0.000000 -0.000000 -17.013195 17.040622 -0.888423 -1.163825 3.416021 17.292209 0.000000 0.000000 0.000000 -15.603515 13.740173 -18.669846 5.566517 0.419457 22.288908 
2.445570 -0.009016 -0.034512 4.740412 16.409731 -5.568978 -0.000000 0.000000 -0.000000 -6.316356 -1.644770 -1.390337 -0.660224 -0.994042 -2.086801 0.000000 0.000000 0.000000 -0.718852 -1.613166 -3.186985 3.564005 -4.611518 -2.277407 -1.537646 -1.748136 -3.483306 -33.729080 0.437728 5.181256 -33.614426 5.410583 -0.229447 1.199314 -9.535314 9.722353 -0.827049 -1.627757 -1.200674 4.348139 7.473233 1.338872 68.205680 3.045316 -7.278328 0.636431 47.159259 -0.596260 0.000000 0.000000 -0.000000 -17.131496 16.912016 -1.404738 -1.026665 3.466664 17.616709 0.000000 0.000000 0.000000 -15.884938 12.474828 -18.244430 5.344749 0.607954 22.458122 
2.731741 0.032142 -0.065667 4.384970 17.657100 -5.452197 -0.000000 0.000000 -0.000000 -6.308192 -1.363139 -1.811042 -0.831615 -0.846598 -2.229444 0.000000 0.000000 0.000000 -0.947390 -1.537570 -3.294885 3.430730 -4.291869 -2.085108 -1.726926 -1.664796 -3.676667 -34.423944 0.891763 5.119066 -33.319911 5.469606 -0.294565 1.204374 -8.431369 9.380319 -1.156780 -1.482188 -1.278128 3.852187 7.292942 1.310317 70.266379 2.688451 -7.422150 0.782127 44.717067 -0.524595 0.000000 0.000000 -0.000000 -17.109526 16.657751 -1.966522 -0.797548 3.567560 17.963290 0.000000 0.000000 0.000000 -15.986963 10.883338 -17.600012 4.979380 0.475689 22.087286 
2.980475 0.082957 -0.087375 3.951483 18.887478 -5.341257 -0.000000 0.000000 -0.000000 -6.554761 -1.015575 -1.941180 -0.961573 -0.695612 -2.410200 0.000000 0.000000 0.000000 -1.135238 -1.444909 -3.418670 3.374617 -3.907900 -1.972815 -1.861450 -1.574548 -3.870012 -34.588693 1.185355 5.073915 -33.560228 5.665211 -0.562131 1.106592 -8.580812 8.960340 -1.421497 -1.319544 -1.358379 3.508524 7.075964 1.285673 71.791310 2.629812 -6.911412 0.886906 42.727547 -0.480082 0.000000 0.000000 -0.000000 -16.950528 16.365276 -2.565349 -0.599691 3.689519 18.302758 0.000000 0.000000 0.000000 -15.929280 9.081219 -16.810045 4.543454 0.237311 21.278397 
3.187362 0.142735 -0.099603 3.513551 19.834682 -5.233469 -0.000000 0.000000 -0.000000 -6.948942 -0.663242 -1.869705 -1.075257 -0.565557 -2.607126 0.000000 0.000000 0.000000 -1.319811 -1.343932 -3.534578 3.424697 -3.452235 -2.005477 -1.981845 -1.467692 -4.059387 -34.355064 1.387226 5.047303 -34.139547 5.768353 -0.959675 0.967031 -9.565328 8.647599 -1.661536 -1.159673 -1.433722 3.304929 6.867356 1.258321 72.653245 2.779973 -6.285292 0.948974 41.102235 -0.447301 0.000000 0.000000 -0.000000 -16.667115 16.093145 -3.126716 -0.463208 3.829268 18.575678 0.000000 0.000000 0.000000 -15.713971 7.246167 -16.083777 4.105010 -0.023187 20.243848 
3.350002 0.207214 -0.105621 3.131080 20.302943 -5.135749 -0.000000 0.000000 -0.000000 -7.408967 -0.349610 -1.707174 -1.188442 -0.456498 -2.814836 0.000000 0.000000 0.000000 -1.505675 -1.253044 -3.661320 3.557023 -2.997236 -2.115595 -2.101721 -1.364531 -4.243981 -33.903574 1.509235 5.055360 -34.887792 5.681453 -1.218517 0.866016 -10.670952 8.435798 -1.884173 -1.015539 -1.505106 3.247012 6.651701 1.224809 72.812441 2.922627 -5.851215 0.961494 40.099004 -0.444017 0.000000 0.000000 -0.000000 -16.363535 15.884586 -3.567026 -0.393626 3.920494 18.680543 0.000000 0.000000 0.000000 -15.399712 5.571501 -15.366766 3.690368 -0.218571 18.957314 
3.464595 0.274770 -0.106572 2.847787 20.271695 -5.029811 -0.000000 0.000000 -0.000000 -7.795482 -0.165101 -1.517413 -1.241148 -0.379475 -3.008887 0.000000 0.000000 0.000000 -1.676372 -1.177035 -3.785491 3.755236 -2.566220 -2.290733 -2.217600 -1.263573 -4.415437 -33.419244 1.603253 5.053623 -35.607827 5.360635 -1.144504 0.797309 -11.578202 8.289431 -2.083963 -0.881009 -1.572323 3.317916 6.481458 1.184227 72.463693 3.035329 -5.591373 0.949070 39.641353 -0.452913 0.000000 0.000000 -0.000000 -16.088495 15.791479 -3.910911 -0.400132 3.969464 18.715138 0.000000 0.000000 0.000000 -15.086017 4.202778 -14.636393 3.312193 -0.477574 17.496056 
3.533255 0.343044 -0.107391 2.629209 19.899402 -4.957363 -0.000000 0.000000 -0.000000 -8.054163 -0.043734 -1.368612 -1.276042 -0.324348 -3.210310 0.000000 0.000000 0.000000 -1.794257 -1.121621 -3.900719 3.979030 -2.199016 -2.507177 -2.310024 -1.179208 -4.572187 -32.922452 1.609530 5.073164 -36.208855 4.874063 -0.743056 0.741963 -12.250985 8.161294 -2.230791 -0.774305 -1.637543 3.477048 6.324956 1.141278 71.807581 3.059424 -5.756964 0.921218 39.645368 -0.464766 0.000000 0.000000 -0.000000 -15.818404 15.840949 -4.145666 -0.495030 4.001400 18.678364 0.000000 0.000000 0.000000 -14.784355 3.175102 -14.014079 2.978124 -0.835430 16.016064 
3.557912 0.408028 -0.112857 2.493684 19.248551 -4.882247 -0.000000 0.000000 -0.000000 -8.179556 0.028051 -1.275800 -1.277936 -0.294610 -3.425495 0.000000 0.000000 0.000000 -1.832630 -1.090237 -4.023371 4.213063 -1.901756 -2.736167 -2.349824 -1.149386 -4.717525 -32.395783 1.568177 5.108693 -36.680102 4.388227 -0.102282 0.693815 -12.693682 8.039498 -2.280028 -0.718547 -1.713205 3.640948 6.170968 1.096432 71.026951 2.909131 -6.101993 0.882804 39.989042 -0.485131 0.000000 0.000000 -0.000000 -15.539040 16.031482 -4.241952 -0.670822 4.053323 18.505028 0.000000 0.000000 0.000000 -14.545430 2.418195 -13.653372 2.695851 -1.277451 14.838861 
3.540572 0.466126 -0.126405 2.416908 18.432992 -4.808878 -0.000000 0.000000 -0.000000 -8.189706 0.048992 -1.257683 -1.240104 -0.303414 -3.654732 0.000000 0.000000 0.000000 -1.788305 -1.088075 -4.158228 4.454937 -1.736851 -2.979856 -2.334771 -1.146665 -4.867163 -31.861135 1.512483 5.212811 -37.033388 3.965835 0.580718 0.642407 -13.008496 7.910748 -2.245612 -0.713838 -1.806310 3.723033 6.011430 1.055318 70.296254 2.633100 -6.449212 0.847275 40.514865 -0.505561 0.000000 0.000000 -0.000000 -15.254593 16.322271 -4.251011 -0.871282 4.139292 18.268781 0.000000 0.000000 0.000000 -14.365018 1.958169 -13.552197 2.459297 -1.803948 14.039069 
3.482275 0.515639 -0.149770 2.394135 17.532056 -4.739680 -0.000000 0.000000 -0.000000 -8.144548 0.027810 -1.276692 -1.165641 -0.355370 -3.895097 0.000000 0.000000 0.000000 -1.674328 -1.111543 -4.314302 4.689682 -1.673255 -3.327617 -2.273945 -1.159684 -5.034517 -31.304564 1.429913 5.391560 -37.332848 3.664124 1.259206 0.594805 -13.247736 7.795899 -2.139856 -0.762879 -1.919876 3.686636 5.834274 1.021835 69.789393 2.264695 -6.521800 0.813265 41.079906 -0.518714 0.000000 0.000000 -0.000000 -14.968502 16.686312 -4.208553 -1.086312 4.195740 18.017484 0.000000 0.000000 0.000000 -14.233248 1.715823 -13.672951 2.311334 -2.252122 13.621643 
